<?xml version="1.0" encoding="UTF-8"?>
<svg id="OUTLINE" xmlns="http://www.w3.org/2000/svg" version="1.1" viewBox="0 0 1000 1000">
  <path d="M223.26,665.56l187.51-331.11,3.51,104.41-60.8,107.41,423.27-189.72L223.26,665.56Z" fill="#143d59" stroke-width="0"/>
  <path d="M410.76,334.44c28.1,44.3,56.2,88.59,84.31,132.89-16.26,7.35-32.51,14.69-48.77,22.04-10.68-16.84-21.35-33.68-32.03-50.51-1.6-11.61-2.88-23.94-3.71-36.93-1.56-24.56-1.21-47.19.2-67.48Z" fill="#143d59" stroke-width="0"/>
  <path d="M477.72,539.07c15.72-8.82,31.45-17.64,47.17-26.46,27.86,43.93,55.71,87.87,83.57,131.8-21.01-.06-42.02-.12-63.02-.19-22.57-35.05-45.15-70.1-67.72-105.16Z" fill="#143d59" stroke-width="0"/>
</svg>