<svg version="1.0" xmlns="http://www.w3.org/2000/svg" width="600.000000pt" height="405.000000pt" viewBox="0 0 600.000000 405.000000" preserveAspectRatio="xMidYMid meet" style="width: 1276.11px; height: auto;"> <g transform="translate(0.000000,405.000000) scale(0.100000,-0.100000)" fill="#000000" stroke="none" class="">  <path d="M1587 2272 c-114 -202 -247 -437 -296 -522 -49 -85 -88 -156 -86 -158 1 -1 100 53 221 121 193 109 1047 585 1409 787 149 83 146 83 -20 7 -243 -113 -1171 -529 -1190 -535 -17 -5 -18 -3 -7 10 6 8 52 85 100 170 l88 155 49 -78 c27 -44 53 -79 56 -79 6 0 138 59 147 66 2 1 -244 397 -262 421 -1 1 -95 -163 -209 -365z m218 297 c-4 -5 -2 -9 4 -9 14 0 42 -55 33 -65 -4 -5 -2 -5 5 -1 7 4 17 -3 24 -15 10 -19 9 -21 -5 -16 -9 4 -16 4 -16 1 0 -2 12 -9 26 -14 18 -7 24 -15 20 -26 -3 -8 -2 -12 4 -9 6 3 10 -1 10 -9 0 -9 5 -16 10 -16 6 0 15 -10 20 -22 5 -13 18 -34 27 -48 10 -13 13 -21 6 -17 -6 4 -15 2 -19 -5 -4 -7 -4 -10 1 -6 13 13 42 -10 54 -42 5 -17 6 -28 2 -25 -5 2 -14 -2 -20 -9 -7 -8 -25 -19 -41 -25 -24 -8 -31 -7 -40 7 -5 9 -10 13 -10 7 -1 -5 -9 6 -19 25 -13 26 -15 39 -7 49 8 11 8 13 -2 7 -16 -9 -44 12 -35 27 3 5 1 7 -5 3 -6 -3 -18 1 -26 10 -12 11 -16 12 -16 2 0 -7 -13 -22 -29 -33 -17 -11 -28 -21 -26 -24 3 -2 14 4 26 15 l21 19 -18 -32 c-10 -17 -22 -29 -26 -27 -4 3 -5 -2 -2 -10 4 -9 -1 -18 -10 -22 -9 -3 -14 -10 -11 -14 3 -5 1 -11 -4 -14 -5 -4 -13 -1 -17 5 -4 8 -3 9 4 5 8 -5 10 -1 5 9 -4 13 -8 14 -14 4 -4 -7 -4 -20 0 -28 9 -18 -61 -146 -73 -134 -4 4 -4 0 -1 -9 4 -9 1 -26 -5 -38 -9 -18 -8 -25 5 -40 16 -18 19 -18 81 15 35 19 65 33 67 32 3 -3 161 66 167 73 3 3 17 11 31 17 20 9 30 9 40 0 8 -7 10 -8 6 -3 -8 10 10 36 25 36 6 0 5 -7 -2 -15 -11 -13 -10 -14 4 -9 9 3 16 13 16 21 0 10 6 13 16 9 9 -4 13 -2 8 5 -4 7 -1 10 7 7 8 -3 26 4 42 14 15 11 27 16 27 11 0 -4 7 1 15 11 9 11 15 14 15 7 0 -9 5 -8 16 3 8 9 20 17 25 17 18 3 24 5 46 17 14 8 24 9 28 2 3 -5 -2 -10 -13 -10 -10 0 -27 -9 -37 -20 -14 -15 -20 -17 -26 -8 -6 9 -10 8 -15 -5 -3 -9 -12 -17 -19 -17 -7 0 -16 -7 -19 -16 -4 -10 -13 -13 -27 -9 -12 4 -19 3 -16 -1 3 -5 -7 -18 -21 -28 -16 -12 -23 -14 -18 -5 4 8 1 6 -7 -3 -8 -10 -17 -15 -21 -11 -3 3 -16 -3 -29 -14 -12 -11 -37 -26 -54 -33 -18 -7 -33 -18 -33 -24 0 -6 -5 -4 -10 4 -9 13 -10 13 -10 0 -1 -19 -68 -52 -77 -37 -3 6 4 19 17 29 12 10 18 18 12 18 -5 0 -15 -7 -22 -15 -7 -8 -17 -12 -23 -8 -6 4 -7 1 -2 -7 4 -7 2 -16 -6 -22 -11 -8 -10 -9 3 -4 15 5 16 3 5 -14 -6 -11 -18 -18 -25 -15 -8 3 -10 0 -6 -7 5 -8 2 -9 -9 -5 -10 3 -17 3 -17 -2 0 -5 -12 -17 -27 -27 -27 -17 -28 -17 -13 2 9 12 4 10 -13 -5 -15 -14 -27 -21 -27 -17 0 5 -9 -2 -20 -15 -10 -13 -19 -19 -20 -12 0 7 -30 -8 -66 -33 -52 -35 -69 -43 -75 -32 -7 10 -9 9 -9 -5 0 -10 -4 -16 -9 -13 -5 3 -12 -1 -15 -10 -3 -8 -10 -12 -16 -9 -5 3 -10 2 -10 -2 0 -12 -71 -49 -88 -45 -9 2 -11 -1 -7 -10 6 -10 5 -10 -5 -1 -7 6 -19 9 -26 6 -16 -6 -19 13 -4 22 6 4 8 11 5 16 -4 5 -1 9 4 9 6 0 11 9 11 20 0 11 8 28 18 38 10 10 17 23 15 29 -2 5 3 16 12 23 8 7 15 16 15 21 0 20 56 99 68 94 10 -4 10 0 1 18 -12 21 -11 21 6 7 11 -9 16 -10 11 -2 -11 18 3 52 22 52 10 0 13 3 6 8 -7 5 -3 20 11 45 12 20 25 34 30 30 4 -5 5 0 2 10 -5 13 -3 17 5 14 7 -2 13 -11 12 -19 -1 -8 4 -15 10 -15 7 0 12 8 12 18 0 10 -4 16 -7 13 -15 -9 -20 17 -7 33 11 14 11 16 -2 9 -8 -4 -6 0 4 8 11 9 16 16 12 16 -4 0 1 12 11 28 10 15 25 39 32 54 8 15 19 25 24 21 6 -3 7 -1 4 4 -4 6 0 24 8 39 8 16 15 24 15 18 0 -7 7 -14 15 -18 13 -5 13 -2 -1 18 -11 18 -12 26 -3 32 8 5 9 3 4 -6 -5 -8 -4 -11 3 -6 6 4 9 13 5 21 -3 8 0 15 6 15 6 0 10 6 9 13 -2 6 3 11 10 9 8 -1 11 2 8 7 -11 16 16 62 32 56 13 -5 13 -3 1 12 -9 11 -10 14 -1 9 8 -5 12 0 12 14 0 12 5 18 10 15 6 -4 8 -11 5 -16z m533 -320 c-12 -10 -26 -15 -31 -12 -13 8 10 29 33 29 21 0 20 -1 -2 -17z m-1007 -543 c8 4 9 3 5 -4 -4 -7 -14 -12 -22 -12 -8 0 -13 -4 -10 -9 3 -5 -3 -11 -14 -14 -18 -4 -18 -3 -5 17 9 13 12 27 8 31 -5 5 0 3 9 -4 9 -7 23 -9 29 -5z" class=""></path>                 <path d="M2880 2230 c0 -6 -37 -101 -83 -213 l-82 -202 47 3 c46 4 48 5 60 43 l11 40 75 -3 75 -3 12 -35 c11 -32 16 -35 59 -40 25 -3 45 -3 44 1 -2 4 -41 99 -87 213 -76 184 -87 206 -108 206 -13 0 -23 -5 -23 -10z m52 -73 c28 -50 27 -72 -3 -56 -15 8 -17 14 -10 23 8 9 7 13 -4 13 -8 0 -12 -4 -9 -8 2 -4 -5 -13 -16 -19 -20 -11 -21 -9 -17 18 5 28 24 72 31 72 3 0 15 -19 28 -43z m0 -124 l24 -73 -49 0 c-42 0 -48 2 -43 17 4 9 15 43 24 74 9 32 17 57 18 56 1 -1 13 -35 26 -74z m-62 46 c0 -6 -4 -7 -10 -4 -5 3 -10 11 -10 16 0 6 5 7 10 4 6 -3 10 -11 10 -16z m96 -11 c-1 -13 3 -24 8 -25 23 -4 28 -63 5 -63 -5 0 -5 7 -2 17 4 11 3 14 -5 9 -8 -5 -10 -2 -6 8 3 9 1 16 -4 16 -8 0 -10 42 -3 58 4 8 7 -1 7 -20z m-115 -40 c-5 -14 -7 -29 -3 -34 4 -4 2 -4 -5 0 -8 4 -11 -1 -10 -15 1 -11 9 -25 19 -30 10 -5 18 -15 18 -22 0 -8 -3 -9 -8 -1 -8 13 -66 -24 -68 -43 -2 -29 -4 -34 -13 -29 -5 4 -12 0 -14 -6 -4 -9 -6 -8 -6 3 -1 8 5 24 13 34 8 11 12 26 9 35 -4 13 -4 13 6 0 7 -10 11 -11 11 -3 0 8 7 10 17 6 15 -6 16 -5 3 9 -8 9 -19 13 -24 11 -5 -3 -7 -2 -4 3 21 47 34 70 41 75 4 3 7 10 6 15 -4 24 1 38 11 28 7 -7 8 -19 1 -36z m187 -135 c22 -41 22 -42 2 -40 -12 1 -18 7 -16 14 3 7 1 15 -4 18 -5 3 -7 12 -4 19 3 8 0 17 -7 22 -8 4 -10 3 -5 -4 4 -7 1 -12 -9 -12 -9 0 -13 5 -10 10 4 7 -2 9 -18 5 -14 -4 -28 -2 -31 3 -4 6 2 8 14 5 17 -5 26 6 18 22 -2 2 6 11 17 19 19 13 20 13 26 -12 3 -15 15 -46 27 -69z" class=""></path>  <path d="M3251 2229 c-132 -53 -175 -245 -80 -354 58 -65 172 -83 272 -42 l37 16 0 99 0 98 -70 0 -70 -1 0 -32 c0 -30 3 -33 30 -33 29 0 30 -2 30 -44 0 -49 -9 -56 -66 -56 -45 0 -86 22 -110 57 -24 36 -24 126 -1 170 31 58 114 81 177 48 26 -14 29 -13 44 10 22 34 20 41 -18 59 -37 18 -136 21 -175 5z m76 -24 c0 -8 -4 -12 -8 -10 -9 6 -76 -22 -84 -35 -4 -6 -11 -7 -17 -4 -7 5 -9 1 -5 -9 4 -10 2 -14 -6 -11 -7 2 -13 -3 -14 -13 0 -10 -6 -42 -12 -71 -8 -38 -7 -59 1 -80 6 -15 10 -33 9 -41 -1 -7 3 -10 9 -6 6 3 9 2 8 -4 -2 -5 12 -21 30 -34 27 -21 30 -26 16 -31 -19 -7 -75 39 -71 58 1 6 -4 10 -11 8 -8 -1 -11 2 -7 8 3 5 2 10 -2 10 -19 0 -18 135 2 176 17 37 40 58 54 50 5 -4 12 -2 16 4 3 5 0 10 -7 10 -8 0 -6 5 5 11 9 5 22 7 29 3 7 -5 8 -3 3 6 -6 10 -3 12 13 8 12 -4 22 -2 22 3 0 5 6 9 13 9 8 0 14 -7 14 -15z m73 -7 c0 -5 5 -6 10 -3 6 3 10 1 10 -4 0 -13 -13 -14 -24 -3 -8 7 -13 8 -42 11 -8 0 -13 5 -10 10 7 11 56 2 56 -11z m30 -188 c0 -5 8 -6 18 -3 15 6 16 5 2 -12 -9 -11 -10 -16 -2 -11 9 5 12 -6 12 -43 0 -60 -24 -92 -67 -90 l-28 1 25 8 c14 4 21 9 15 9 -5 1 -3 7 6 14 18 14 32 57 18 57 -5 0 -9 5 -9 11 0 5 6 7 13 3 8 -5 8 -2 -2 9 -7 9 -10 17 -5 18 5 0 -1 4 -14 10 -13 5 -20 13 -17 19 8 13 35 13 35 0z m-94 -160 c38 0 28 -15 -11 -16 -18 0 -31 4 -28 9 3 5 -4 6 -18 2 -19 -5 -21 -4 -9 4 8 6 21 9 28 6 8 -3 25 -5 38 -5z" class=""></path>  <path d="M3548 2030 l-3 -210 43 0 42 0 0 210 0 210 -40 0 -39 0 -3 -210z m40 -142 c-8 -4 -8 -8 -2 -8 6 0 11 -7 11 -15 0 -21 -17 -19 -18 3 -2 36 1 121 9 232 l7 115 3 -159 c2 -121 -1 -161 -10 -168z" class=""></path> <path d="M3710 2031 l0 -210 140 -3 140 -3 0 36 0 35 -100 -3 -100 -3 0 180 0 180 -40 0 -40 0 0 -209z m66 -155 c9 -15 23 -18 89 -17 43 1 76 -2 72 -5 -3 -3 -48 -7 -99 -7 -90 -1 -93 -1 -92 21 0 12 2 95 4 185 l4 162 6 -160 c3 -88 10 -168 16 -179z" class=""></path> <path d="M4048 2027 l3 -212 39 3 40 4 0 209 0 209 -42 0 -43 0 3 -213z m51 -137 c5 0 7 -9 4 -20 -6 -22 -18 -26 -29 -8 -5 7 -2 8 7 3 10 -6 11 -5 4 3 -6 7 -8 74 -5 179 l5 168 3 -162 c1 -90 6 -163 11 -163z" class=""></path> <path d="M4250 2223 c-14 -9 -30 -24 -37 -33 -35 -46 -16 -128 38 -158 88 -48 119 -73 125 -98 5 -20 2 -31 -11 -41 -25 -17 -79 -17 -115 2 -29 15 -30 15 -43 -17 -17 -41 -15 -45 31 -58 88 -24 168 -3 202 52 42 69 13 131 -88 188 -72 40 -88 60 -72 90 15 28 51 34 95 16 21 -9 39 -15 40 -14 9 17 25 61 23 63 -37 30 -150 35 -188 8z m52 -10 c-6 -2 -9 -10 -6 -15 4 -7 2 -8 -5 -4 -13 9 -5 26 12 25 9 0 8 -2 -1 -6z m58 -10 c0 -14 -2 -15 -9 -4 -5 8 -14 10 -21 6 -9 -5 -11 -4 -6 3 11 18 36 14 36 -5z m34 -9 c5 -14 4 -15 -9 -4 -17 14 -19 20 -6 20 5 0 12 -7 15 -16z m-118 -6 c4 -7 3 -8 -4 -4 -7 4 -12 1 -12 -8 0 -25 -1 -30 -9 -41 -11 -16 -6 -40 8 -37 7 1 10 -1 7 -6 -3 -5 8 -16 25 -26 16 -9 29 -22 29 -27 0 -6 5 -7 10 -4 6 3 10 0 10 -7 0 -9 3 -9 10 2 7 11 10 11 10 2 0 -8 5 -10 13 -6 6 4 9 3 4 -1 -4 -5 3 -16 15 -24 24 -17 27 -23 34 -77 3 -27 -2 -37 -27 -59 -18 -14 -34 -23 -38 -20 -3 4 3 13 13 21 11 8 17 14 13 14 -4 0 0 11 9 25 15 23 14 26 -8 62 -12 21 -27 38 -33 38 -21 1 -75 41 -75 55 0 12 -2 13 -9 1 -11 -18 -34 -4 -27 16 4 10 2 13 -7 10 -9 -3 -12 8 -12 43 0 27 3 46 6 44 4 -2 12 3 19 11 15 18 17 18 26 3z m1 -333 c14 -10 24 -12 28 -5 7 11 25 4 25 -10 0 -9 -28 -7 -72 5 -16 4 -25 11 -22 16 7 13 16 11 41 -6z" class=""></path>         <path d="M2086 2034 c-32 -19 -62 -34 -67 -34 -18 0 -7 -22 84 -162 52 -79 99 -153 106 -166 11 -21 18 -22 112 -21 55 0 99 4 97 8 -10 25 -261 411 -267 410 -3 0 -32 -16 -65 -35z m74 -17 c7 -10 9 -17 3 -15 -6 2 -11 -1 -11 -7 -1 -5 6 -9 14 -7 9 2 18 -6 21 -17 3 -12 10 -18 15 -15 5 4 3 -7 -6 -23 -12 -24 -12 -30 -1 -30 7 0 11 7 8 16 -4 14 34 -24 68 -66 12 -16 -3 -17 -18 -2 -9 9 -11 7 -9 -7 2 -11 10 -18 19 -16 17 3 60 -52 93 -117 10 -20 -15 -31 -74 -31 -50 0 -54 2 -63 29 -6 16 -17 32 -25 35 -8 3 -14 14 -14 25 0 10 -7 22 -16 25 -9 3 -14 13 -10 21 3 8 0 17 -6 21 -7 5 -8 2 -3 -6 5 -8 4 -11 -2 -7 -16 10 -23 46 -11 54 6 3 8 1 5 -4 -4 -6 -1 -13 6 -16 8 -3 14 1 14 9 0 14 -9 18 -38 15 -10 -1 -25 17 -41 49 -14 27 -28 47 -31 43 -4 -3 -7 -3 -7 1 0 4 20 16 45 27 24 11 47 24 51 30 3 6 7 9 8 7 1 -2 8 -11 16 -21z" class=""></path>               </g> </svg>