<?xml version="1.0" standalone="no"?>
<!DOCTYPE svg PUBLIC "-//W3C//DTD SVG 20010904//EN"
 "http://www.w3.org/TR/2001/REC-SVG-20010904/DTD/svg10.dtd">
<svg version="1.0" xmlns="http://www.w3.org/2000/svg"
 width="600.000000pt" height="405.000000pt" viewBox="0 0 600.000000 405.000000"
 preserveAspectRatio="xMidYMid meet">
<g transform="translate(0.000000,405.000000) scale(0.100000,-0.100000)"
fill="#000000" stroke="none">
<path d="M1767 2589 c-144 -249 -555 -984 -552 -987 2 -2 340 184 752 414 411
230 789 441 840 468 50 28 90 52 89 53 -1 2 -288 -125 -637 -281 -348 -157
-635 -283 -637 -281 -4 4 178 325 184 325 2 0 25 -33 50 -72 26 -40 48 -75 50
-77 3 -3 139 55 152 64 4 3 -236 385 -253 404 -11 11 -17 5 -38 -30z"/>
<path d="M2875 2208 c-46 -111 -155 -381 -155 -384 0 -2 20 -4 43 -4 42 0 44
1 57 40 l13 41 75 -3 75 -3 12 -35 c11 -32 15 -35 58 -38 l46 -3 -56 133 c-30
73 -69 168 -85 211 -35 88 -59 101 -83 45z m54 -170 c12 -34 21 -66 21 -70 0
-4 -21 -8 -46 -8 -33 0 -45 4 -41 13 2 6 13 38 23 70 10 31 19 57 20 57 1 0
12 -28 23 -62z"/>
<path d="M3229 2217 c-156 -83 -139 -343 27 -397 47 -16 137 -8 187 16 l37 18
0 93 0 93 -70 0 -70 0 0 -30 c0 -27 3 -30 30 -30 29 0 30 -2 30 -44 0 -49 -9
-56 -66 -56 -95 0 -152 87 -124 190 17 64 60 100 119 100 25 0 58 -7 74 -14
26 -14 28 -14 42 14 19 38 20 35 -19 54 -52 24 -143 21 -197 -7z"/>
<path d="M3550 2031 l0 -211 40 0 40 0 -2 208 -3 207 -37 3 -38 3 0 -210z"/>
<path d="M3717 2233 c-4 -3 -7 -98 -7 -210 l0 -203 140 0 140 0 0 30 0 29 -97
3 -98 3 -3 178 -2 177 -34 0 c-18 0 -36 -3 -39 -7z"/>
<path d="M4050 2031 l0 -211 40 0 40 0 -2 208 -3 207 -37 3 -38 3 0 -210z"/>
<path d="M4265 2230 c-40 -16 -68 -57 -68 -99 0 -54 23 -86 84 -117 58 -29 99
-66 99 -88 0 -42 -73 -60 -129 -32 -27 15 -28 14 -44 -19 -16 -33 -16 -35 4
-46 11 -6 44 -13 73 -16 103 -11 186 53 172 132 -9 48 -39 80 -107 116 -68 36
-85 59 -69 89 15 28 51 34 95 16 21 -9 39 -15 40 -14 1 2 7 17 13 35 10 30 9
32 -20 42 -36 13 -114 13 -143 1z"/>
<path d="M2080 2030 c-36 -21 -64 -44 -62 -50 5 -22 195 -312 206 -315 26 -9
177 -12 182 -4 6 10 -244 410 -254 408 -4 0 -36 -18 -72 -39z"/>
</g>
</svg>
